<svg xmlns="http://www.w3.org/2000/svg" version="1.1" xmlns:xlink="http://www.w3.org/1999/xlink" xmlns:svgjs="http://svgjs.dev/svgjs" width="1000" height="171" viewBox="0 0 1000 171"><g transform="matrix(1,0,0,1,0.16994382022460286,0.6503606557376997)"><svg viewBox="0 0 356 61" data-background-color="#ffffff" preserveAspectRatio="xMidYMid meet" height="171" width="1000" xmlns="http://www.w3.org/2000/svg" xmlns:xlink="http://www.w3.org/1999/xlink"><g id="tight-bounds" transform="matrix(1,0,0,1,-0.06049999999996203,-0.23199999999999932)"><svg viewBox="0 0 356.12052 61.463849142505886" height="61.463849142505886" width="356.12052"><g><svg viewBox="0 0 356.12052 61.463849142505886" height="61.463849142505886" width="356.12052"><g><svg viewBox="0 0 356.12052 61.463849142505886" height="61.463849142505886" width="356.12052"><g><path d="M0 61.464v-61.464h356.121v61.464z" fill="#ee3e38" stroke="transparent" stroke-width="0" rx="0%" data-fill-palette-color="tertiary"></path><path d="M3.283 58.181v-54.898h349.554v54.898z" fill="#ffffff" stroke="transparent" stroke-width="0" rx="0%" data-fill-palette-color="quaternary"></path><path d="M9.85 51.614v-41.764h336.421v41.764z" fill="#ee3e38" stroke="transparent" stroke-width="0" data-fill-palette-color="tertiary"></path></g><g transform="matrix(1,0,0,1,19.69974,19.69974)" id="textblocktransform"><svg viewBox="0 0 316.72104 22.06436914250589" height="22.06436914250589" width="316.72104" id="textblock"><g><svg viewBox="0 0 316.72104 22.06436914250589" height="22.06436914250589" width="316.72104"><g transform="matrix(1,0,0,1,0,0)"><svg width="316.72104" viewBox="1.5 -33.5 488.02 34" height="22.06436914250589" data-palette-color="#ffffff"><path d="M19.9 0L1.5 0 1.5-0.8 5.95-2.9 5.95-30.1 1.5-32.2 1.5-33 19.9-33 19.9-32.2 15.45-30.1 15.45-2.9 19.9-0.8 19.9 0ZM26.65 0L15.45-16.5 29.1-30.3 25.25-32.2 25.25-33 37.85-33 37.85-32.2 34.4-30.65 23.85-20.65 36.5-2.35 40.3-0.8 40.3 0 26.65 0ZM59.7 0L42 0 42-0.8 46.45-2.9 46.45-30.1 42-32.2 42-33 61.85-33Q67.1-33 70.12-30.83 73.15-28.65 73.15-24.85L73.15-24.85Q73.15-22.1 71.35-20.28 69.55-18.45 66.55-17.3L66.55-17.3 75.7-2.95 79.5-0.8 79.5 0 66.3 0 57.35-15.4 55.95-15.4 55.95-2.95 59.7-0.8 59.7 0ZM57.15-30.25L57.15-30.25 55.95-30.25 55.95-17.65 57.45-17.65Q60.45-17.65 62.12-19.38 63.8-21.1 63.8-23.95L63.8-23.95Q63.8-27 62.15-28.63 60.5-30.25 57.15-30.25ZM111 0L80.5 0 80.5-0.8 84.95-2.9 84.95-30.1 80.5-32.2 80.5-33 109.59-33 109.59-24.3 108.8-24.3 104.7-30.25 94.45-30.25 94.45-18.4 101.65-18.4 104.65-22.8 105.45-22.8 105.45-11.35 104.65-11.35 101.65-15.65 94.45-15.65 94.45-2.75 105.75-2.75 110.2-10.95 111-10.95 111 0ZM125.34 0L114.49 0 114.49-0.8 117.44-2.55 130.69-33.25 136.44-33.25 149.54-2.55 152.99-0.8 152.99 0 134.99 0 134.99-0.8 139.29-2.65 136.09-10.35 124.44-10.35 121.24-2.65 125.34-0.8 125.34 0ZM130.29-24.25L125.59-13.1 134.94-13.1 130.29-24.25ZM181.69 0L161.19 0 161.19-0.8 166.69-2.9 166.69-30.25 160.19-30.25 155.79-21.45 154.99-21.45 154.99-33 187.89-33 187.89-21.45 187.09-21.45 182.69-30.25 176.19-30.25 176.19-2.9 181.69-0.8 181.69 0ZM209.29 0L190.89 0 190.89-0.8 195.34-2.9 195.34-30.1 190.89-32.2 190.89-33 209.29-33 209.29-32.2 204.84-30.1 204.84-2.9 209.29-0.8 209.29 0ZM232.24 0.25L228.59 0.25 214.89-30.1 211.24-32.2 211.24-33 228.84-33 228.84-32.2 224.99-30.3 233.49-11.45 233.94-11.45 242.44-30.25 238.39-32.2 238.39-33 249.24-33 249.24-32.2 246.29-30.55 232.24 0.25ZM281.78 0L251.28 0 251.28-0.8 255.73-2.9 255.73-30.1 251.28-32.2 251.28-33 280.38-33 280.38-24.3 279.58-24.3 275.48-30.25 265.23-30.25 265.23-18.4 272.43-18.4 275.43-22.8 276.23-22.8 276.23-11.35 275.43-11.35 272.43-15.65 265.23-15.65 265.23-2.75 276.53-2.75 280.98-10.95 281.78-10.95 281.78 0ZM316.78 0.5L316.78 0.5Q313.18 0.5 309.98-0.75 306.78-2 304.35-4.25 301.93-6.5 300.53-9.47 299.13-12.45 299.13-15.95L299.13-15.95Q299.13-19.8 300.73-23 302.33-26.2 305.08-28.55 307.83-30.9 311.33-32.2 314.83-33.5 318.63-33.5L318.63-33.5Q321.33-33.5 323.23-33.2 325.13-32.9 326.63-32.35 328.13-31.8 329.58-31.1L329.58-31.1 330.33-21.95 329.38-21.95 323.58-30.25Q321.78-31.1 319.08-31.1L319.08-31.1Q316.38-31.1 314.1-29.23 311.83-27.35 310.45-23.93 309.08-20.5 309.08-15.8L309.08-15.8Q309.08-11.65 310.3-8.58 311.53-5.5 313.6-3.83 315.68-2.15 318.23-2.15L318.23-2.15Q319.23-2.15 320.43-2.3L320.43-2.3 320.43-11.95 315.98-14.55 315.98-15.35 333.88-15.35 333.88-14.55 329.93-11.95 329.93-3.7Q328.38-2.4 326.13-1.48 323.88-0.55 321.4-0.03 318.93 0.5 316.78 0.5ZM326.03-3.85L326.03-3.85 325.53-3.6Q325.78-3.7 326.03-3.85ZM353.93 0L336.23 0 336.23-0.8 340.68-2.9 340.68-30.1 336.23-32.2 336.23-33 356.08-33Q361.33-33 364.35-30.83 367.38-28.65 367.38-24.85L367.38-24.85Q367.38-22.1 365.58-20.28 363.78-18.45 360.78-17.3L360.78-17.3 369.93-2.95 373.73-0.8 373.73 0 360.53 0 351.58-15.4 350.18-15.4 350.18-2.95 353.93-0.8 353.93 0ZM351.38-30.25L351.38-30.25 350.18-30.25 350.18-17.65 351.68-17.65Q354.68-17.65 356.35-19.38 358.03-21.1 358.03-23.95L358.03-23.95Q358.03-27 356.38-28.63 354.73-30.25 351.38-30.25ZM392.62 0.5L392.62 0.5Q388.82 0.5 385.62-0.78 382.42-2.05 380.02-4.33 377.62-6.6 376.3-9.7 374.97-12.8 374.97-16.5L374.97-16.5Q374.97-20.2 376.3-23.3 377.62-26.4 380.02-28.68 382.42-30.95 385.62-32.23 388.82-33.5 392.62-33.5L392.62-33.5Q396.42-33.5 399.65-32.23 402.87-30.95 405.27-28.68 407.67-26.4 409-23.3 410.32-20.2 410.32-16.5L410.32-16.5Q410.32-12.8 409-9.7 407.67-6.6 405.27-4.33 402.87-2.05 399.65-0.78 396.42 0.5 392.62 0.5ZM393.27-2.15L393.27-2.15Q395.37-2.15 396.95-3.75 398.52-5.35 399.42-8.22 400.32-11.1 400.32-15.05L400.32-15.05Q400.32-19.85 399.22-23.4 398.12-26.95 396.27-28.93 394.42-30.9 392.07-30.9L392.07-30.9Q390.02-30.9 388.42-29.33 386.82-27.75 385.9-24.88 384.97-22 384.97-18.05L384.97-18.05Q384.97-13.25 386.1-9.68 387.22-6.1 389.1-4.13 390.97-2.15 393.27-2.15ZM433.82 0.5L433.82 0.5Q429.07 0.5 425.52-0.95 421.97-2.4 420.02-5.8 418.07-9.2 418.07-15.1L418.07-15.1 418.07-30.1 413.57-32.2 413.57-33 432.07-33 432.07-32.2 427.57-30.1 427.57-14.5Q427.57-10.4 428.85-8.08 430.12-5.75 432.25-4.78 434.37-3.8 436.97-3.8L436.97-3.8Q439.17-3.8 441.1-4.67 443.02-5.55 444.2-7.53 445.37-9.5 445.37-12.75L445.37-12.75 445.37-30.2 440.87-32.2 440.87-33 453.37-33 453.37-32.2 448.87-30.15 448.87-15.1Q448.87-9.2 447.02-5.8 445.17-2.4 441.77-0.95 438.37 0.5 433.82 0.5ZM475.82 0L456.37 0 456.37-0.8 460.82-2.9 460.82-30.1 456.37-32.2 456.37-33 476.47-33Q480.37-33 483.32-32.08 486.27-31.15 487.89-29.2 489.52-27.25 489.52-24.15L489.52-24.15Q489.52-21.3 487.64-19.2 485.77-17.1 482.57-15.95 479.37-14.8 475.27-14.8L475.27-14.8 470.32-14.8 470.32-2.9 475.82-0.8 475.82 0ZM471.22-30.25L470.32-30.25 470.32-17.05 471.57-17.05Q475.52-17.05 477.77-18.95 480.02-20.85 480.02-23.65L480.02-23.65Q480.02-27.15 477.74-28.7 475.47-30.25 471.22-30.25L471.22-30.25Z" opacity="1" transform="matrix(1,0,0,1,0,0)" fill="#ffffff" class="wordmark-text-0" data-fill-palette-color="quaternary" id="text-0"></path></svg></g></svg></g></svg></g></svg></g><g></g></svg></g><defs></defs></svg><rect width="356.12052" height="61.463849142505886" fill="none" stroke="none" visibility="hidden"></rect></g></svg></g></svg>